<svg width="13" height="11" viewBox="0 0 13 11" fill="none" xmlns="http://www.w3.org/2000/svg">
<path d="M6.60887 1.39282C5.68242 1.39282 4.77676 1.63384 4.00644 2.0854C3.23612 2.53696 2.63573 3.17878 2.28119 3.92969C1.92665 4.68061 1.83389 5.5069 2.01463 6.30407C2.19537 7.10123 2.6415 7.83348 3.29661 8.40821C3.95171 8.98293 4.78637 9.37432 5.69502 9.53289C6.60368 9.69146 7.54552 9.61008 8.40146 9.29904C9.25739 8.988 9.98897 8.46127 10.5037 7.78546C11.0184 7.10966 11.2931 6.31512 11.2931 5.50234C11.2918 4.41279 10.7978 3.36822 9.91963 2.59779C9.04146 1.82737 7.85079 1.39402 6.60887 1.39282ZM6.60887 9.28309C5.75653 9.28309 4.92333 9.06136 4.21464 8.64592C3.50594 8.23049 2.95358 7.64001 2.62741 6.94917C2.30123 6.25833 2.21589 5.49814 2.38217 4.76475C2.54845 4.03135 2.95889 3.35769 3.56159 2.82894C4.16429 2.30019 4.93217 1.94011 5.76813 1.79423C6.60409 1.64835 7.47059 1.72322 8.25805 2.00938C9.04551 2.29553 9.71856 2.78012 10.1921 3.40186C10.6656 4.02361 10.9184 4.75458 10.9184 5.50234C10.9171 6.50472 10.4627 7.46574 9.65479 8.17453C8.84687 8.88333 7.75145 9.28201 6.60887 9.28309ZM8.25773 6.58766C7.99811 6.89117 7.63623 7.11533 7.22335 7.22839C6.81046 7.34146 6.3675 7.3377 5.95718 7.21765C5.54686 7.09761 5.18999 6.86735 4.93711 6.5595C4.68423 6.25165 4.54815 5.8818 4.54815 5.50234C4.54815 5.12288 4.68423 4.75303 4.93711 4.44518C5.18999 4.13732 5.54686 3.90707 5.95718 3.78702C6.3675 3.66697 6.81046 3.66322 7.22335 3.77628C7.63623 3.88935 7.99811 4.11351 8.25773 4.41701C8.27252 4.43428 8.2833 4.45394 8.28943 4.47486C8.29557 4.49578 8.29694 4.51756 8.29349 4.53895C8.29003 4.56034 8.2818 4.58092 8.26928 4.59952C8.25675 4.61812 8.24017 4.63437 8.22049 4.64735C8.2008 4.66033 8.1784 4.66978 8.15455 4.67517C8.1307 4.68055 8.10588 4.68176 8.0815 4.67872C8.05712 4.67569 8.03366 4.66847 8.01246 4.65748C7.99126 4.6465 7.97273 4.63195 7.95794 4.61468C7.74558 4.36628 7.44951 4.18279 7.11168 4.09021C6.77385 3.99762 6.41138 4.00064 6.07561 4.09883C5.73984 4.19702 5.4478 4.38541 5.24085 4.6373C5.0339 4.8892 4.92254 5.19183 4.92254 5.50234C4.92254 5.81284 5.0339 6.11548 5.24085 6.36737C5.4478 6.61927 5.73984 6.80765 6.07561 6.90585C6.41138 7.00404 6.77385 7.00705 7.11168 6.91447C7.44951 6.82189 7.74558 6.6384 7.95794 6.38999C7.98782 6.35512 8.03226 6.33208 8.0815 6.32595C8.13074 6.31983 8.18073 6.33111 8.22049 6.35732C8.26024 6.38353 8.2865 6.42253 8.29349 6.46573C8.30047 6.50892 8.28761 6.55278 8.25773 6.58766Z" fill="white"/>
</svg>
