<svg width="60" height="33" viewBox="0 0 60 33" fill="none" xmlns="http://www.w3.org/2000/svg">
<path d="M23.5184 30.2483L17.7987 24.3423C19.4565 22.2868 20.2832 19.6503 20.1067 16.9814C19.9303 14.3124 18.7644 11.8165 16.8515 10.0127C14.9386 8.20898 12.426 7.23634 9.83637 7.29712C7.24679 7.3579 4.77958 8.44743 2.94799 10.3391C1.1164 12.2307 0.0614537 14.7788 0.0026011 17.4532C-0.0562515 20.1277 0.885523 22.7227 2.63201 24.6983C4.3785 26.6739 6.79523 27.8781 9.37948 28.0603C11.9637 28.2425 14.5165 27.3888 16.5068 25.6766L22.2253 31.5838C22.3102 31.6714 22.411 31.741 22.5219 31.7885C22.6328 31.8359 22.7517 31.8604 22.8718 31.8604C22.9919 31.8604 23.1108 31.8359 23.2217 31.7885C23.3327 31.741 23.4335 31.6714 23.5184 31.5838C23.6033 31.4961 23.6706 31.392 23.7166 31.2774C23.7625 31.1628 23.7862 31.04 23.7862 30.916C23.7862 30.792 23.7625 30.6692 23.7166 30.5546C23.6706 30.44 23.6033 30.3359 23.5184 30.2483ZM1.85297 17.7025C1.85297 16.0225 2.33535 14.3802 3.2391 12.9833C4.14285 11.5864 5.42738 10.4977 6.93026 9.85475C8.43314 9.21183 10.0869 9.04361 11.6823 9.37137C13.2778 9.69912 14.7433 10.5081 15.8935 11.6961C17.0438 12.8841 17.8271 14.3976 18.1445 16.0454C18.4618 17.6931 18.299 19.401 17.6764 20.9532C17.0539 22.5053 15.9997 23.832 14.6472 24.7653C13.2946 25.6987 11.7044 26.1969 10.0777 26.1969C7.89714 26.1944 5.80654 25.2987 4.26462 23.7062C2.72271 22.1137 1.85539 19.9546 1.85297 17.7025Z" fill="#886D0D"/>
<path d="M58.956 13.5335C58.8587 13.4373 58.737 13.3598 58.5994 13.3067C58.4619 13.2536 58.312 13.2261 58.1602 13.2261H37.2506L36.6168 10.3488C36.53 9.95383 36.2782 9.59662 35.9054 9.33938C35.5325 9.08215 35.0623 8.94122 34.5766 8.94116H32.2371C31.962 8.94116 31.6983 9.03145 31.5038 9.19217C31.3094 9.35288 31.2001 9.57086 31.2001 9.79815C31.2001 10.0254 31.3094 10.2434 31.5038 10.4041C31.6983 10.5648 31.962 10.6551 32.2371 10.6551H34.5701L37.8831 25.6834C37.9807 26.1291 38.219 26.5456 38.574 26.8907C38.0841 27.2689 37.7305 27.7518 37.5524 28.2859C37.3743 28.82 37.3787 29.3844 37.5651 29.9166C37.7514 30.4488 38.1125 30.9279 38.6082 31.3008C39.1039 31.6737 39.7149 31.9259 40.3735 32.0294C41.032 32.1328 41.7124 32.0835 42.3391 31.8869C42.9658 31.6903 43.5144 31.3541 43.924 30.9156C44.3337 30.4771 44.5883 29.9533 44.6598 29.4025C44.7313 28.8516 44.6167 28.2952 44.3289 27.7948H50.216C49.9841 28.1962 49.864 28.6355 49.8648 29.0803C49.8648 29.6735 50.0776 30.2534 50.4764 30.7467C50.8752 31.2399 51.442 31.6244 52.1052 31.8514C52.7683 32.0784 53.498 32.1378 54.202 32.0221C54.906 31.9064 55.5527 31.6207 56.0603 31.2012C56.5678 30.7817 56.9135 30.2473 57.0535 29.6654C57.1936 29.0836 57.1217 28.4805 56.847 27.9325C56.5723 27.3844 56.1071 26.9159 55.5103 26.5863C54.9135 26.2568 54.2118 26.0808 53.494 26.0808H40.9433C40.7005 26.0808 40.4654 26.0103 40.279 25.8817C40.0926 25.7531 39.9667 25.5745 39.9233 25.377L39.5124 23.5099H54.5478C55.2763 23.5098 55.9817 23.2984 56.5409 22.9126C57.1001 22.5267 57.4778 21.9909 57.608 21.3985L59.1841 14.2363C59.2108 14.1125 59.2042 13.9853 59.1648 13.8639C59.1254 13.7424 59.0541 13.6297 58.956 13.5335ZM42.6063 29.0803C42.6063 29.3345 42.5151 29.5831 42.3442 29.7945C42.1733 30.0059 41.9303 30.1706 41.6461 30.2679C41.3619 30.3652 41.0492 30.3907 40.7475 30.3411C40.4458 30.2915 40.1686 30.169 39.9511 29.9893C39.7336 29.8095 39.5854 29.5804 39.5254 29.3311C39.4654 29.0817 39.4962 28.8232 39.6139 28.5884C39.7317 28.3535 39.931 28.1527 40.1868 28.0115C40.4426 27.8702 40.7433 27.7948 41.0509 27.7948C41.4634 27.7948 41.8591 27.9302 42.1507 28.1713C42.4424 28.4124 42.6063 28.7394 42.6063 29.0803ZM55.0494 29.0803C55.0494 29.3345 54.9582 29.5831 54.7873 29.7945C54.6164 30.0059 54.3734 30.1706 54.0892 30.2679C53.805 30.3652 53.4923 30.3907 53.1906 30.3411C52.8889 30.2915 52.6117 30.169 52.3942 29.9893C52.1767 29.8095 52.0285 29.5804 51.9685 29.3311C51.9085 29.0817 51.9393 28.8232 52.057 28.5884C52.1747 28.3535 52.3741 28.1527 52.6299 28.0115C52.8857 27.8702 53.1864 27.7948 53.494 27.7948C53.9065 27.7948 54.3021 27.9302 54.5938 28.1713C54.8855 28.4124 55.0494 28.7394 55.0494 29.0803ZM55.5679 21.0921C55.5243 21.2901 55.3979 21.4692 55.2107 21.5978C55.0234 21.7265 54.7874 21.7966 54.5439 21.7959H39.1352L37.6278 14.9401H56.9172L55.5679 21.0921Z" fill="#886D0D"/>
</svg>
