<svg width="61" height="61" viewBox="0 0 61 61" fill="none" xmlns="http://www.w3.org/2000/svg">
<path d="M20.4415 26.2007H24.6053C24.6053 26.2007 25.1257 26.2007 25.1257 26.639V38.0361C25.1257 38.0361 25.1257 38.4744 24.6053 38.4744H20.4415C20.4415 38.4744 19.921 38.4744 19.921 38.0361V26.639C19.921 26.639 19.921 26.2007 20.4415 26.2007Z" fill="white"/>
<path d="M22.5026 24.4474C23.0181 24.4509 23.5233 24.3253 23.954 24.0866C24.3847 23.8478 24.7214 23.5068 24.9216 23.1066C25.1218 22.7064 25.1763 22.2652 25.0782 21.8389C24.9802 21.4126 24.734 21.0204 24.3709 20.7121C24.0078 20.4039 23.5441 20.1934 23.0388 20.1074C22.5334 20.0214 22.0091 20.0637 21.5324 20.2291C21.0556 20.3945 20.648 20.6754 20.3611 21.0362C20.0742 21.397 19.921 21.8214 19.921 22.2556C19.9196 22.5423 19.9853 22.8264 20.1143 23.0917C20.2433 23.357 20.4331 23.5983 20.6728 23.8018C20.9125 24.0053 21.1975 24.1671 21.5114 24.2779C21.8254 24.3886 22.1622 24.4462 22.5026 24.4474Z" fill="white"/>
<path d="M37.0966 38.4745H40.2194C40.3575 38.4745 40.4898 38.4283 40.5874 38.3461C40.6851 38.2639 40.7399 38.1524 40.7399 38.0361V30.6719C40.7399 27.3667 38.5227 25.7623 35.4207 25.7623C34.8064 25.7439 34.1944 25.8343 33.6242 26.0276C33.054 26.2209 32.5383 26.5128 32.1105 26.8845C32.0523 26.9377 31.9756 26.974 31.8915 26.9881C31.8073 27.0023 31.72 26.9937 31.642 26.9634C31.5633 26.9387 31.4954 26.8944 31.4471 26.8365C31.3988 26.7786 31.3724 26.7098 31.3714 26.639C31.3714 26.5228 31.3166 26.4113 31.2189 26.3291C31.1213 26.2469 30.989 26.2007 30.8509 26.2007H27.7281C27.59 26.2007 27.4577 26.2469 27.3601 26.3291C27.2624 26.4113 27.2076 26.5228 27.2076 26.639V38.0361C27.2076 38.1524 27.2624 38.2639 27.3601 38.3461C27.4577 38.4283 27.59 38.4745 27.7281 38.4745H30.8509C30.989 38.4745 31.1213 38.4283 31.2189 38.3461C31.3166 38.2639 31.3714 38.1524 31.3714 38.0361V31.4609C31.3714 30.8796 31.6456 30.3221 32.1336 29.9111C32.6216 29.5001 33.2836 29.2691 33.9737 29.2691C34.6639 29.2691 35.3259 29.5001 35.8139 29.9111C36.3019 30.3221 36.5761 30.8796 36.5761 31.4609V38.0361C36.5761 38.1524 36.6309 38.2639 36.7286 38.3461C36.8262 38.4283 36.9585 38.4745 37.0966 38.4745Z" fill="white"/>
<path d="M60.3093 30.8473C60.3093 47.1304 47.1109 60.3303 30.8301 60.3303C14.5492 60.3303 1.35089 47.1304 1.35089 30.8473C1.35089 14.5642 14.5492 1.36426 30.8301 1.36426C47.1109 1.36426 60.3093 14.5642 60.3093 30.8473Z" stroke="white"/>
</svg>
