<svg width="61" height="61" viewBox="0 0 61 61" fill="none" xmlns="http://www.w3.org/2000/svg">
<g clip-path="url(#clip0_2001_204)">
<path fill-rule="evenodd" clip-rule="evenodd" d="M35.6146 17.9206C38.6815 17.0647 42.382 18.2451 44.6362 20.8485H47.1637C47.3629 20.8487 47.5588 20.9037 47.7331 21.0084C47.9073 21.113 48.0543 21.2639 48.1602 21.4469C48.2661 21.6299 48.3274 21.8391 48.3385 22.0548C48.3496 22.2705 48.3101 22.4858 48.2237 22.6804L45.7386 28.2655C46.4453 34.7755 44.0968 40.9994 39.374 44.6785C34.5452 48.442 27.4387 49.3898 19.0107 45.6443C18.5534 45.4564 18.1614 45.1187 17.8891 44.6783C17.6167 44.2378 17.4775 43.7163 17.4907 43.1861C17.5039 42.6559 17.6689 42.1434 17.9627 41.7195C18.2566 41.2956 18.6649 40.9814 19.1308 40.8206C20.4239 40.4407 21.6632 39.8716 22.8148 39.1292C20.2353 37.4481 18.2157 34.9205 17.0482 31.912C15.8807 28.9036 15.6259 25.5702 16.3207 22.3943C16.3735 21.92 16.5478 21.4714 16.8239 21.0992C17.1 20.727 17.4667 20.4462 17.8825 20.2887C18.2983 20.1312 18.7464 20.1033 19.1761 20.2081C19.6057 20.3129 19.9997 20.5463 20.3133 20.8818C23.6416 24.4306 26.5506 25.8971 28.567 26.4975C29.349 26.73 30.0038 26.8348 30.5032 26.8782C30.3477 24.6299 30.701 22.7545 31.4831 21.2727C32.4347 19.4663 33.9493 18.3856 35.6146 17.9206Z" fill="white"/>
</g>
<path d="M60.4064 30.795C60.4064 47.0781 47.208 60.2781 30.9272 60.2781C14.6463 60.2781 1.448 47.0781 1.448 30.795C1.448 14.512 14.6463 1.31201 30.9272 1.31201C47.208 1.31201 60.4064 14.512 60.4064 30.795Z" stroke="white"/>
<defs>
<clipPath id="clip0_2001_204">
<rect width="32.9771" height="35.7692" fill="white" transform="translate(14.9383 12.3845)"/>
</clipPath>
</defs>
</svg>
