<svg width="60" height="61" viewBox="0 0 60 61" fill="none" xmlns="http://www.w3.org/2000/svg">
<path d="M59.4549 30.8473C59.4549 47.1304 46.2566 60.3303 29.9757 60.3303C13.6949 60.3303 0.496521 47.1304 0.496521 30.8473C0.496521 14.5642 13.6949 1.36426 29.9757 1.36426C46.2566 1.36426 59.4549 14.5642 59.4549 30.8473Z" stroke="white"/>
<path d="M33.4108 11.9983C31.0752 11.9983 28.8353 12.788 27.1838 14.1937C25.5323 15.5995 24.6044 17.5061 24.6044 19.494V25.3241H19.712C19.4525 25.3241 19.2036 25.4118 19.0201 25.568C18.8366 25.7242 18.7335 25.9361 18.7335 26.1569V32.8198C18.7335 33.0407 18.8366 33.2526 19.0201 33.4088C19.2036 33.565 19.4525 33.6527 19.712 33.6527H24.6044V47.8114C24.6044 48.0322 24.7075 48.2441 24.891 48.4003C25.0745 48.5565 25.3234 48.6442 25.5829 48.6442H33.4108C33.6703 48.6442 33.9192 48.5565 34.1027 48.4003C34.2862 48.2441 34.3893 48.0322 34.3893 47.8114V33.6527H39.2818C39.5 33.6527 39.712 33.5905 39.884 33.4761C40.056 33.3617 40.1781 33.2017 40.2309 33.0214L42.1879 26.3585C42.2238 26.2357 42.2265 26.1076 42.1956 25.9839C42.1647 25.8601 42.1011 25.744 42.0096 25.6443C41.9181 25.5446 41.8012 25.4639 41.6676 25.4085C41.534 25.353 41.3874 25.3241 41.2387 25.3241H34.3893V22.8255C34.3893 22.1628 34.6986 21.5273 35.2491 21.0587C35.7996 20.5902 36.5463 20.3269 37.3248 20.3269H41.2387C41.4982 20.3269 41.7471 20.2392 41.9306 20.083C42.1141 19.9268 42.2172 19.7149 42.2172 19.494V12.8312C42.2172 12.6103 42.1141 12.3984 41.9306 12.2422C41.7471 12.086 41.4982 11.9983 41.2387 11.9983H33.4108Z" fill="white"/>
</svg>
