<svg width="76" height="59" viewBox="0 0 76 59" fill="none" xmlns="http://www.w3.org/2000/svg">
<path d="M10.1333 28.1282C9.81667 26.8991 9.81667 25.6699 9.81667 24.4407C9.81667 12.1491 22.4833 2.31575 38.3167 2.31575C54.15 2.31575 66.8167 12.1491 66.8167 24.4407C66.8167 25.6699 66.8167 26.8991 66.5 28.1282" stroke="black" stroke-miterlimit="10" stroke-linecap="round" stroke-linejoin="round"/>
<path d="M54.7833 16.0824C54.15 14.3616 51.9333 13.1324 49.4 13.1324C46.8667 13.1324 44.65 14.3616 44.0167 16.0824" stroke="black" stroke-miterlimit="10" stroke-linecap="round" stroke-linejoin="round"/>
<path d="M32.6167 16.0824C31.9833 14.3616 29.7667 13.1324 27.2333 13.1324C24.7 13.1324 22.4833 14.3616 21.85 16.0824" stroke="black" stroke-miterlimit="10" stroke-linecap="round" stroke-linejoin="round"/>
<path d="M10.45 34.0283C12.0333 32.5533 14.5667 33.0449 15.8333 34.0283L22.8 40.4199L23.1167 36.4866C23.4333 34.7658 25.65 33.5366 27.8667 33.7824C29.1333 34.0283 30.4 35.0116 30.7167 35.9949L32.3 41.1574C32.3 41.1574 34.8333 49.2699 29.7667 53.6949C27.55 55.6616 24.7 56.3991 22.1667 56.6449C19 56.8908 15.8333 55.9074 13.6167 54.1866L4.43333 48.2866C4.43333 48.2866 1.9 47.0574 3.16666 43.8616C4.43333 41.1574 8.23333 36.2408 10.45 34.0283Z" stroke="black" stroke-miterlimit="10" stroke-linecap="round" stroke-linejoin="round"/>
<path d="M65.55 34.0283C63.9667 32.5533 61.4333 33.0449 60.1667 34.0283L53.2 40.4199L52.8833 36.4866C52.5667 34.7658 50.35 33.5366 48.1333 33.7824C46.8667 34.0283 45.6 35.0116 45.2833 35.9949L43.7 41.1574C43.7 41.1574 41.1667 49.2699 46.2333 53.6949C48.45 55.6616 51.3 56.3991 53.8333 56.6449C57 56.8908 60.1667 55.9074 62.3833 54.1866L71.5667 48.2866C71.5667 48.2866 74.1 47.0574 72.8333 43.8616C71.25 41.1574 67.7667 36.2408 65.55 34.0283Z" stroke="black" stroke-miterlimit="10" stroke-linecap="round" stroke-linejoin="round"/>
<path d="M32.6167 26.8991C35.7833 29.3574 40.5333 29.3574 43.7 26.8991" stroke="black" stroke-miterlimit="10" stroke-linecap="round" stroke-linejoin="round"/>
<path d="M53.5167 22.9657H57.95" stroke="black" stroke-miterlimit="10" stroke-linecap="round" stroke-linejoin="round"/>
<path d="M18.3667 22.9657H22.8" stroke="black" stroke-miterlimit="10" stroke-linecap="round" stroke-linejoin="round"/>
</svg>
