<svg width="88" height="60" viewBox="0 0 88 60" fill="none" xmlns="http://www.w3.org/2000/svg">
<path d="M54.45 27.3225L49.6393 30.53C48.5609 31.2467 47.9442 32.2262 47.9249 33.253C47.9057 34.2798 48.4854 35.2697 49.5367 36.005C50.5879 36.7403 52.0245 37.1608 53.5304 37.1739C55.0363 37.187 56.4882 36.7917 57.5667 36.075L70.653 27.325H77.4913C80.2287 27.0055 82.8855 26.4221 85.382 25.5925" stroke="black" stroke-linecap="round" stroke-linejoin="round"/>
<path d="M82.0417 10.5275L73.2233 13.6375L52.4077 14.8875C44.3007 14.7575 37.0737 21.355 29.6083 27.3225" stroke="black" stroke-linecap="round" stroke-linejoin="round"/>
<path d="M61.5267 22.6L54.45 27.3225" stroke="black" stroke-linecap="round" stroke-linejoin="round"/>
<path d="M17.6403 39.25C16.8857 37.9239 16.6166 36.4923 16.8564 35.0793C17.0962 33.6663 17.8376 32.3145 19.0164 31.1409C20.1952 29.9673 21.7759 29.0073 23.6215 28.3441C25.4672 27.681 27.5221 27.3346 29.6083 27.335H54.45" stroke="black" stroke-linecap="round" stroke-linejoin="round"/>
<path d="M60.2873 44.8225H44.1943" stroke="black" stroke-linecap="round" stroke-linejoin="round"/>
<path d="M58.3293 51.44C57.6705 49.6425 57.9635 47.744 59.1568 46.0794C60.3501 44.4148 62.367 43.0908 64.8519 42.341C67.3369 41.5911 70.1304 41.4635 72.7399 41.9806C75.3494 42.4977 77.6073 43.6263 79.1157 45.1675" stroke="black" stroke-linecap="round" stroke-linejoin="round"/>
<path d="M72.3543 41.9075C72.3368 40.8596 72.6849 39.8238 73.37 38.8857C74.0551 37.9476 75.0576 37.134 76.2947 36.512C77.5317 35.8901 78.968 35.4776 80.4849 35.3086C82.0018 35.1396 83.5559 35.2189 85.019 35.54" stroke="black" stroke-linecap="round" stroke-linejoin="round"/>
<path d="M47.8977 57.5C47.8939 55.5391 46.966 53.6309 45.2508 52.0569C43.5357 50.4828 41.1241 49.3262 38.3716 48.7576C35.6192 48.189 32.6716 48.2385 29.9636 48.8988C27.2556 49.5591 24.9304 50.7953 23.331 52.425" stroke="black" stroke-linecap="round" stroke-linejoin="round"/>
<path d="M29.4176 49.0175C29.5436 47.7941 29.3073 46.5659 28.7228 45.406C28.1384 44.2461 27.2177 43.1782 26.0156 42.2659C24.8135 41.3535 23.3546 40.6153 21.7255 40.0953C20.0965 39.5752 18.3307 39.2839 16.5331 39.2386C14.7356 39.1933 12.9431 39.395 11.2622 39.8317C9.5813 40.2683 8.04642 40.9311 6.74885 41.7805C5.45129 42.6298 4.41755 43.6485 3.70915 44.7758C3.00075 45.9031 2.63216 47.1161 2.62531 48.3425" stroke="black" stroke-linecap="round" stroke-linejoin="round"/>
<path d="M4.39264 19.4275C4.39264 20.7854 5.1838 22.0877 6.59207 23.0479C8.00035 24.0081 9.91037 24.5475 11.902 24.5475C13.8936 24.5475 15.8036 24.0081 17.2119 23.0479C18.6201 22.0877 19.4113 20.7854 19.4113 19.4275C19.4113 18.0696 18.6201 16.7673 17.2119 15.8071C15.8036 14.8469 13.8936 14.3075 11.902 14.3075C9.91037 14.3075 8.00035 14.8469 6.59207 15.8071C5.1838 16.7673 4.39264 18.0696 4.39264 19.4275Z" stroke="black" stroke-linecap="round" stroke-linejoin="round"/>
<path d="M23.9543 6.2625C23.9543 7.25706 24.5338 8.21089 25.5653 8.91415C26.5967 9.61741 27.9957 10.0125 29.4543 10.0125C30.913 10.0125 32.312 9.61741 33.3434 8.91415C34.3749 8.21089 34.9543 7.25706 34.9543 6.2625C34.9543 5.26794 34.3749 4.31411 33.3434 3.61085C32.312 2.90759 30.913 2.5125 29.4543 2.5125C27.9957 2.5125 26.5967 2.90759 25.5653 3.61085C24.5338 4.31411 23.9543 5.26794 23.9543 6.2625Z" stroke="black" stroke-linecap="round" stroke-linejoin="round"/>
</svg>
