<svg width="81" height="65" viewBox="0 0 81 65" fill="none" xmlns="http://www.w3.org/2000/svg">
<path d="M35.6406 38.8187H4.08317C3.85608 38.8184 3.63131 38.8552 3.4227 38.9268C3.2141 38.9985 3.02609 39.1035 2.87025 39.2354C2.71442 39.3673 2.59405 39.5233 2.51658 39.6937C2.43911 39.8641 2.40618 40.0454 2.4198 40.2264C2.86947 46.3125 6.21456 52.0314 11.7708 56.2133C17.3271 60.3953 24.6747 62.7242 32.3105 62.7238H48.9442C56.5829 62.7248 63.9331 60.3946 69.4904 56.2104C75.0477 52.0261 78.3919 46.3042 78.8383 40.2158C78.8519 40.0348 78.819 39.8535 78.7415 39.6831C78.6641 39.5126 78.5437 39.3567 78.3879 39.2248C78.232 39.0929 78.044 38.9879 77.8354 38.9162C77.6268 38.8445 77.402 38.8077 77.1749 38.8081H58.9278" stroke="black" stroke-linecap="round" stroke-linejoin="round"/>
<path d="M23.0988 6.57863L20.1048 4.18812C19.145 3.50673 17.9588 3.06168 16.6893 2.90667C15.4197 2.75167 14.1211 2.89334 12.9502 3.31459C11.7793 3.73583 10.7861 4.41865 10.0904 5.28063C9.39484 6.14261 9.02655 7.1469 9.03004 8.17231V38.8187" stroke="black" stroke-linecap="round" stroke-linejoin="round"/>
<path d="M23.0988 15.482C22.3539 14.8998 21.761 14.2055 21.3543 13.4391C20.9477 12.6728 20.7354 11.8497 20.7298 11.0175C20.7241 10.1853 20.9252 9.36038 21.3214 8.59059C21.7176 7.8208 22.3011 7.12138 23.0381 6.5328C23.7751 5.94422 24.6509 5.47816 25.6149 5.16158C26.5789 4.845 27.612 4.68419 28.6544 4.68845C29.6967 4.69271 30.7277 4.86196 31.6876 5.1864C32.6475 5.51085 33.5173 5.98405 34.2467 6.57862L34.9287 7.12313C35.2405 7.37218 35.4157 7.70991 35.4157 8.06207C35.4157 8.41422 35.2405 8.75196 34.9287 9.00101L26.1328 16.0265C25.9783 16.1501 25.7947 16.2483 25.5927 16.3152C25.3906 16.3822 25.1739 16.4166 24.9551 16.4166C24.7363 16.4166 24.5197 16.3822 24.3176 16.3152C24.1155 16.2483 23.932 16.1501 23.7775 16.0265L23.0988 15.482Z" stroke="black" stroke-linecap="round" stroke-linejoin="round"/>
<path d="M42.6001 9.81909L48.6415 12.0423" stroke="black" stroke-linecap="round" stroke-linejoin="round"/>
<path d="M27.6797 21.769L30.2946 26.6536" stroke="black" stroke-linecap="round" stroke-linejoin="round"/>
<path d="M36.602 17.0305L41.3326 20.7677" stroke="black" stroke-linecap="round" stroke-linejoin="round"/>
<path d="M35.6406 36.1626C35.6406 35.4581 35.9911 34.7825 36.615 34.2844C37.2389 33.7863 38.085 33.5064 38.9673 33.5064H55.601C56.4833 33.5064 57.3295 33.7863 57.9534 34.2844C58.5773 34.7825 58.9278 35.4581 58.9278 36.1626V50.7713C58.9278 51.1235 58.7525 51.4613 58.4406 51.7103C58.1286 51.9594 57.7055 52.0993 57.2644 52.0993H37.304C36.8628 52.0993 36.4397 51.9594 36.1278 51.7103C35.8158 51.4613 35.6406 51.1235 35.6406 50.7713V36.1626Z" stroke="black" stroke-linecap="round" stroke-linejoin="round"/>
</svg>
