<svg width="61" height="61" viewBox="0 0 61 61" fill="none" xmlns="http://www.w3.org/2000/svg">
<path fill-rule="evenodd" clip-rule="evenodd" d="M21.3602 16.4333C19.6353 16.4333 17.981 17.0927 16.761 18.2665C15.5411 19.4403 14.8554 21.0324 14.8547 22.6927V39.3906C14.8547 41.0513 15.5401 42.644 16.7601 43.8183C17.9802 44.9926 19.6349 45.6523 21.3602 45.6523H38.7082C40.4331 45.6517 42.0872 44.9917 43.3066 43.8174C44.5261 42.6432 45.2112 41.0509 45.2112 39.3906V22.6927C45.2105 21.0328 44.5252 19.4411 43.3058 18.2674C42.0864 17.0937 40.4327 16.434 38.7082 16.4333H21.3602ZM40.5794 22.7023C40.5794 23.1806 40.382 23.6393 40.0306 23.9775C39.6792 24.3158 39.2026 24.5058 38.7057 24.5058C38.2087 24.5058 37.7322 24.3158 37.3808 23.9775C37.0294 23.6393 36.832 23.1806 36.832 22.7023C36.832 22.224 37.0294 21.7652 37.3808 21.427C37.7322 21.0888 38.2087 20.8988 38.7057 20.8988C39.2026 20.8988 39.6792 21.0888 40.0306 21.427C40.382 21.7652 40.5794 22.224 40.5794 22.7023ZM30.0367 26.0399C28.6585 26.0399 27.3368 26.5669 26.3623 27.5049C25.3878 28.4429 24.8403 29.7151 24.8403 31.0416C24.8403 32.3682 25.3878 33.6403 26.3623 34.5783C27.3368 35.5163 28.6585 36.0433 30.0367 36.0433C31.4149 36.0433 32.7366 35.5163 33.7111 34.5783C34.6856 33.6403 35.2331 32.3682 35.2331 31.0416C35.2331 29.7151 34.6856 28.4429 33.7111 27.5049C32.7366 26.5669 31.4149 26.0399 30.0367 26.0399ZM22.3395 31.0416C22.3395 29.0773 23.1502 27.1935 24.5933 25.8046C26.0363 24.4156 27.9935 23.6353 30.0342 23.6353C32.075 23.6353 34.0321 24.4156 35.4751 25.8046C36.9182 27.1935 37.7289 29.0773 37.7289 31.0416C37.7289 33.0059 36.9182 34.8897 35.4751 36.2787C34.0321 37.6677 32.075 38.448 30.0342 38.448C27.9935 38.448 26.0363 37.6677 24.5933 36.2787C23.1502 34.8897 22.3395 33.0059 22.3395 31.0416Z" fill="white"/>
<path d="M60.3578 30.8473C60.3578 47.1304 47.1595 60.3303 30.8786 60.3303C14.5978 60.3303 1.39941 47.1304 1.39941 30.8473C1.39941 14.5642 14.5978 1.36426 30.8786 1.36426C47.1595 1.36426 60.3578 14.5642 60.3578 30.8473Z" stroke="white"/>
</svg>
