<svg width="56" height="66" viewBox="0 0 56 66" fill="none" xmlns="http://www.w3.org/2000/svg">
<path d="M28 63.932C38.647 64.097 49.21 61.787 53.7903 57.101C54.227 56.6531 54.5068 56.0299 54.5753 55.3524C54.6439 54.6749 54.4963 53.9917 54.1613 53.4352C47.8333 42.9165 47.8333 27.3845 47.8333 27.3845C47.854 21.1239 45.7865 15.1045 42.0764 10.6239C38.3664 6.14327 33.3109 3.56037 28 3.432C22.6889 3.55966 17.6331 6.14234 13.9229 10.6231C10.2127 15.1039 8.14536 21.1237 8.16667 27.3845C8.16667 27.3845 8.16667 42.9165 1.83867 53.4352C1.50367 53.9917 1.35612 54.6749 1.42468 55.3524C1.49324 56.0299 1.77302 56.6531 2.20967 57.101C6.78767 61.776 17.3507 64.097 27.9977 63.932" fill="#E3AEAE"/>
<path d="M8.71967 21.9478C14.2889 17.0751 21.0646 14.4996 28 14.619C34.9357 14.4998 41.7116 17.0763 47.2803 21.9505C46.2936 16.7633 43.8561 12.1175 40.3594 8.7595C36.8628 5.40149 32.5099 3.52615 28 3.43475C23.4903 3.52552 19.1375 5.40029 15.6408 8.75784C12.144 12.1154 9.70647 16.7608 8.71967 21.9478Z" fill="#E3AEAE"/>
<path d="M41.748 28.4625C38.953 28.4754 36.2057 27.6097 33.7892 25.9546C31.3726 24.2995 29.3742 21.9149 28 19.0465C26.5066 22.1621 24.2797 24.7015 21.5883 26.3577C18.8969 28.014 15.8561 28.7164 12.8333 28.38V38.192C13.0313 42.8212 14.7024 47.1924 17.5134 50.434C20.3244 53.6756 24.0688 55.5495 28 55.682C31.9312 55.5495 35.6756 53.6756 38.4866 50.434C41.2976 47.1924 42.9687 42.8212 43.1667 38.192V28.38C42.7 28.435 42.2263 28.4625 41.748 28.4625Z" fill="#E3AEAE"/>
<path d="M41.748 28.4625C38.953 28.4754 36.2057 27.6097 33.7892 25.9546C31.3726 24.2995 29.3742 21.9149 28 19.0465C26.5066 22.1621 24.2797 24.7015 21.5883 26.3577C18.8969 28.014 15.8561 28.7164 12.8333 28.38V38.192C13.0313 42.8212 14.7024 47.1924 17.5134 50.434C20.3244 53.6756 24.0688 55.5495 28 55.682C31.9312 55.5495 35.6756 53.6756 38.4866 50.434C41.2976 47.1924 42.9687 42.8212 43.1667 38.192V28.38C42.7 28.435 42.2263 28.4625 41.748 28.4625Z" stroke="#191919" stroke-linecap="round" stroke-linejoin="round"/>
<path d="M32.4053 43.0127C31.1778 44.0963 29.6854 44.682 28.1517 44.682C26.618 44.682 25.1256 44.0963 23.898 43.0127" stroke="#191919" stroke-linecap="round" stroke-linejoin="round"/>
<path d="M36.1667 5.599C33.6143 4.17255 30.8248 3.43238 28 3.432C22.6889 3.55966 17.6331 6.14234 13.9229 10.6231C10.2127 15.1039 8.14536 21.1237 8.16667 27.3845C8.16667 27.3845 8.16667 42.9165 1.83867 53.4353C1.50367 53.9917 1.35612 54.675 1.42468 55.3524C1.49324 56.0299 1.77302 56.6531 2.20967 57.101C6.78767 61.776 17.3507 64.097 27.9977 63.932C38.6447 64.097 49.2077 61.787 53.788 57.101C54.2247 56.6531 54.5044 56.0299 54.573 55.3524C54.6416 54.675 54.494 53.9917 54.159 53.4353C47.8333 42.9165 47.8333 27.3845 47.8333 27.3845C47.8333 25.3302 47.6093 23.287 47.166 21.3015" stroke="#191919" stroke-linecap="round" stroke-linejoin="round"/>
<path d="M36.1667 14.432H45.5" stroke="#191919" stroke-linecap="round" stroke-linejoin="round"/>
<path d="M40.8333 8.932V19.932" stroke="#191919" stroke-linecap="round" stroke-linejoin="round"/>
<path d="M46.6667 6.182H53.6667" stroke="#191919" stroke-linecap="round" stroke-linejoin="round"/>
<path d="M50.1667 2.057V10.307" stroke="#191919" stroke-linecap="round" stroke-linejoin="round"/>
</svg>
