<svg width="24" height="23" viewBox="0 0 24 23" fill="none" xmlns="http://www.w3.org/2000/svg">
<path d="M10.3646 0.77312L7.5304 6.51965L1.18926 7.44413C0.052104 7.60906 -0.403625 9.01097 0.421028 9.81392L5.0087 14.2844L3.92363 20.5995C3.72832 21.741 4.93058 22.596 5.93752 22.0622L11.6103 19.0804L17.283 22.0622C18.29 22.5917 19.4922 21.741 19.2969 20.5995L18.2118 14.2844L22.7995 9.81392C23.6242 9.01097 23.1684 7.60906 22.0313 7.44413L15.6901 6.51965L12.8559 0.77312C12.3481 -0.251186 10.8768 -0.264207 10.3646 0.77312Z" fill="#E9D94B"/>
<path d="M7.60253 7.01442L7.86258 6.9765L7.97883 6.74081L10.8129 0.994473C11.139 0.333992 12.0809 0.336255 12.4078 0.994825C12.4078 0.994952 12.4079 0.995079 12.408 0.995207L15.2417 6.74081L15.3579 6.9765L15.618 7.01442L21.9591 7.9389L21.9595 7.93895C22.686 8.04432 22.9785 8.94173 22.4507 9.45568L22.4506 9.45582L17.8629 13.9263L17.6745 14.1099L17.719 14.3691L18.8041 20.6838C18.9283 21.4102 18.1619 21.9595 17.5157 21.6196L17.5156 21.6196L11.8429 18.6378L11.6103 18.5155L11.3776 18.6378L5.70488 21.6196L5.70331 21.6204C5.06056 21.9612 4.29166 21.4133 4.41647 20.6838L5.50148 14.3691L5.54602 14.1099L5.35765 13.9263L0.769978 9.45582L0.769836 9.45568C0.241992 8.94173 0.534522 8.04432 1.26102 7.93895L1.26139 7.9389L7.60253 7.01442Z" stroke="black" stroke-opacity="0.38"/>
</svg>
