<svg width="24" height="19" viewBox="0 0 24 19" fill="none" xmlns="http://www.w3.org/2000/svg">
<path d="M10.3646 0.646041L7.5304 5.44801L1.18926 6.22053C0.052104 6.35835 -0.403625 7.52982 0.421028 8.20079L5.0087 11.9365L3.92363 17.2135C3.72832 18.1674 4.93058 18.8819 5.93752 18.4358L11.6103 15.9441L17.283 18.4358C18.29 18.8783 19.4922 18.1674 19.2969 17.2135L18.2118 11.9365L22.7995 8.20079C23.6242 7.52982 23.1684 6.35835 22.0313 6.22053L15.6901 5.44801L12.8559 0.646041C12.3481 -0.209898 10.8768 -0.220779 10.3646 0.646041Z" fill="#E9D94B"/>
<path d="M7.83565 5.91451L7.59087 5.94434L1.24972 6.71686L1.24942 6.71689C0.843551 6.76608 0.614643 6.98807 0.535553 7.19173C0.462256 7.38047 0.489974 7.6123 0.73659 7.81295L0.73674 7.81308L5.32441 11.5487L5.55952 11.7402L5.49846 12.0372L4.41347 17.3138L7.83565 5.91451ZM7.83565 5.91451L7.961 5.70215M7.83565 5.91451L7.961 5.70215M7.961 5.70215L10.7951 0.900384C10.9391 0.656555 11.245 0.499001 11.6105 0.500005C11.9767 0.50101 12.2831 0.660928 12.4257 0.900732C12.4257 0.900875 12.4258 0.901018 12.4259 0.901161L15.2595 5.70215L15.3849 5.91451L15.6297 5.94434L21.9708 6.71686L21.9711 6.71689C22.377 6.76608 22.6059 6.98807 22.685 7.19173C22.7583 7.38047 22.7306 7.6123 22.4839 7.81295L22.4838 7.81308L17.8961 11.5487L17.661 11.7402L17.7221 12.0372L18.8071 17.3138C18.8518 17.5325 18.7521 17.7581 18.4832 17.9198C18.2117 18.0829 17.8301 18.1301 17.4842 17.978L17.4841 17.978L11.8113 15.4864L11.6103 15.398L11.4092 15.4864L5.73644 17.978L5.73499 17.9786M7.961 5.70215L5.73499 17.9786M5.73499 17.9786C5.38975 18.1316 5.00893 18.0847 4.73767 17.9213M5.73499 17.9786L4.73767 17.9213M4.73767 17.9213C4.46886 17.7594 4.36876 17.5331 4.41339 17.3142L4.73767 17.9213Z" stroke="black" stroke-opacity="0.27"/>
</svg>
